<?xml version="1.0" encoding="UTF-8"?>
<!-- Generator: https://ezgif.com/png-to-svg -->
<svg version="1.1" xmlns="http://www.w3.org/2000/svg" width="533" height="533">
<path d="M0 0 C7.16 5.54 13.89 11.15 19.65 18.15 C26.85 26.58 32.47 32.37 43.82 33.8 C48.25 34.14 52.67 34.37 57.1 34.52 C66.8 35.08 75.05 38.84 81.94 45.69 C88.79 54.9 85.83 67.47 84.35 78.07 C82.33 91.63 79.17 103.93 71.94 115.69 C66.39 125.45 71.58 140.46 73.94 150.69 C77.53 163.4 84.82 174.77 91.81 185.88 C102.82 203.63 113.15 221.19 110.94 242.69 C108.26 253.93 96.59 260.97 87.37 266.64 C83.91 268.7 80.44 270.71 76.94 272.69 C74.84 314.05 84.72 365.36 111.62 397.76 C115.43 402.56 116.64 405.48 115.94 411.69 C112.33 421.7 105.49 429.08 95.94 433.69 C76.75 441.49 60.18 436.13 41.93 428.54 C35.55 425.82 29.32 422.78 23.06 419.79 C-1.71 407.19 -1.71 407.19 -28.56 408.67 C-37.48 412.3 -45.07 417.72 -52.86 423.28 C-69.42 435.1 -84.03 440.22 -104.44 437.06 C-115.6 434.23 -124.11 427.56 -133.11 420.74 C-143.33 413.09 -153.04 408.54 -166.06 409.69 C-175.07 411.83 -183.25 415.43 -191.5 419.56 C-193.68 420.63 -195.87 421.7 -198.05 422.77 C-199.09 423.27 -200.12 423.78 -201.19 424.3 C-218.31 432.57 -236.9 437.96 -255.88 432.12 C-264.26 428.63 -275.31 423 -279.12 414.25 C-278.96 407.65 -275.08 403.2 -270.62 398.75 C-238.59 365.27 -225.66 317.83 -220.07 272.84 C-219.99 272.16 -219.9 271.47 -219.81 270.76 C-218 256.09 -216.77 241.39 -215.71 226.65 C-215.46 223.16 -215.19 219.67 -214.93 216.19 C-214 203.75 -213.1 191.3 -212.23 178.86 C-211.97 175.12 -211.7 171.38 -211.44 167.64 C-211.11 163.08 -210.8 158.52 -210.49 153.96 C-209.79 143.71 -208.9 133.5 -207.59 123.3 C-207.47 122.39 -207.35 121.48 -207.23 120.54 C-202.25 83.8 -187.25 49.75 -161.39 23.06 C-160.27 21.9 -159.17 20.71 -158.09 19.52 C-119.02 -22.21 -47.12 -34.44 0 0 Z M-160.92 32.8 C-200.96 78.39 -202.63 135.98 -205.79 193.38 C-206.84 212.41 -208.07 231.39 -210.08 250.36 C-210.16 251.13 -210.25 251.91 -210.33 252.71 C-216.01 305.97 -228.31 360.03 -263.6 401.68 C-264.41 402.65 -265.22 403.62 -266.06 404.62 C-266.81 405.5 -267.55 406.38 -268.31 407.28 C-269.95 409.53 -270.66 410.97 -271.06 413.69 C-262.38 422.17 -250.48 427.61 -238.31 428 C-222.42 427.65 -207.42 419.36 -193.38 412.56 C-178.08 405.23 -163.38 398.68 -146.25 404.19 C-138.81 407.38 -132.38 412.31 -125.84 417 C-113.72 425.6 -101.46 433.37 -86.06 431.69 C-72.77 429.11 -61.8 421.79 -51.38 413.5 C-38.92 403.61 -25.06 398.33 -9.06 399.69 C-0.86 401.2 6.45 403.97 13.94 407.56 C14.95 408.04 15.96 408.51 17 408.99 C20.32 410.55 23.63 412.12 26.94 413.69 C31.23 415.72 35.52 417.75 39.82 419.77 C41.57 420.6 43.31 421.43 45.06 422.27 C59.17 428.92 73.36 434.17 88.88 429.06 C98.05 425.17 105.24 419.04 109.19 409.75 C108.69 403.71 104.15 399.28 100.59 394.59 C95.97 388.41 91.91 382.22 88.56 375.25 C88.25 374.62 87.94 373.99 87.63 373.34 C82.45 362.05 80.33 349.35 78.25 337.2 C78.01 335.87 77.78 334.55 77.54 333.22 C76.69 328.39 75.85 323.55 75.01 318.71 C74.29 314.58 73.57 310.46 72.84 306.34 C72.51 304.44 72.18 302.53 71.85 300.62 C70.69 294.06 69.24 287.94 66.94 281.69 C66.23 281.72 65.53 281.76 64.81 281.8 C61.48 281.96 58.14 282.11 54.81 282.25 C53.59 282.31 52.37 282.36 51.11 282.42 C44.28 282.69 37.68 282.59 30.88 281.94 C20.75 281.01 15.02 282.01 6.99 288.32 C-7.02 299.18 -25.97 298.11 -42.77 296.26 C-62.32 293.09 -79.28 282.78 -93.39 269.25 C-95.6 267.13 -97.85 265.11 -100.19 263.12 C-109.85 254.69 -120.37 245.33 -124.06 232.69 C-119.37 234.78 -115.86 237.41 -112.19 240.94 C-111.12 241.94 -110.06 242.93 -108.99 243.93 C-108.48 244.41 -107.98 244.89 -107.45 245.38 C-104.4 248.25 -101.26 250.99 -98.06 253.69 C-97.51 254.15 -96.96 254.62 -96.39 255.1 C-76.27 272.04 -52.78 288.5 -25.07 286.47 C-8.54 284.24 4.17 275.69 14.16 262.62 C15.26 261.13 16.35 259.63 17.44 258.12 C18.33 256.91 18.33 256.91 19.23 255.67 C25.77 246.64 32.08 237.44 38.26 228.17 C39.39 226.5 40.55 224.85 41.74 223.22 C42.58 222.05 42.58 222.05 43.44 220.85 C44.2 219.83 44.2 219.83 44.97 218.78 C46.25 216.01 45.89 214.54 44.94 211.69 C42.91 209.89 42.91 209.89 40.31 208.56 C39.41 208.06 38.51 207.56 37.57 207.04 C26.5 201.35 14.9 199.49 2.75 203.31 C-12.98 209.27 -25.38 219.76 -37 231.69 C-48.72 243.57 -48.72 243.57 -55.06 245.69 C-55.28 244.54 -55.28 244.54 -55.5 243.38 C-57.94 239.17 -61.53 238.9 -66.06 237.69 C-77.81 234.35 -84.88 231.62 -91.06 220.69 C-93.91 212.14 -92.32 203.73 -88.64 195.75 C-86.34 191.29 -83.88 186.92 -81.32 182.6 C-79.87 179.24 -79.81 178.08 -81.06 174.69 C-82.64 171.88 -82.64 171.88 -84.56 169.12 C-88.43 163.41 -88.43 163.41 -89.06 159.69 C-84.69 162.84 -80.55 166.11 -76.51 169.69 C-68.01 177.19 -58.88 183.62 -49.52 190 C-46.09 192.36 -42.69 194.78 -39.3 197.2 C-33.13 201.31 -27.37 202.11 -20.06 200.69 C-14.93 199.1 -9.95 197.1 -4.96 195.12 C9.46 189.42 22.9 186.12 37.94 191.69 C41.56 193.56 45.06 195.63 48.51 197.81 C52.11 200.11 52.11 200.11 56.23 200.46 C58.93 197.66 59.68 194.22 60.69 190.56 C60.91 189.81 61.13 189.05 61.36 188.28 C61.9 186.42 62.42 184.55 62.94 182.69 C63.6 182.69 64.26 182.69 64.94 182.69 C65.19 183.93 65.19 183.93 65.45 185.21 C65.7 186.29 65.94 187.38 66.19 188.5 C66.42 189.58 66.65 190.66 66.89 191.77 C68.06 195.04 68.91 196.06 71.94 197.69 C75.1 197.94 75.1 197.94 77.94 197.69 C75.83 201.53 73.48 204.3 70.31 207.31 C65.57 211.97 61.32 216.82 57.22 222.05 C56.31 223.21 55.39 224.37 54.47 225.53 C47.95 233.72 41.85 242.08 36.25 250.94 C35.74 251.74 35.24 252.53 34.72 253.36 C30.4 260.04 30.4 260.04 28.94 267.69 C39.44 272.94 60.13 269.33 71.21 266 C82.96 261.85 95.44 255.86 101.7 244.5 C105.66 235.54 104.03 226.71 100.94 217.69 C95.5 204.69 87.88 192.43 80.32 180.57 C69.09 162.69 61.48 140.02 61.94 118.69 C62.98 115.5 64.32 113.49 66.34 110.86 C76.16 97.38 78.04 76.71 78.44 60.38 C78.47 59.69 78.5 59 78.53 58.29 C78.53 54.17 77.73 51.1 74.84 48.08 C65.32 41.13 52.62 40.24 41.31 38.75 C33.65 37.6 28.55 36.12 22.94 30.69 C22.16 29.99 21.38 29.28 20.58 28.56 C19.98 27.94 19.37 27.33 18.75 26.69 C18.08 26.01 17.41 25.32 16.73 24.62 C14.94 22.69 14.94 22.69 12.62 19.75 C-2.28 1.34 -27.14 -9.4 -50.06 -12.31 C-93.19 -15.25 -131.93 0.91 -160.92 32.8 Z M-82.79 200.91 C-85.66 205.46 -86.85 209.2 -85.82 214.55 C-83.81 220.21 -79.72 223.59 -74.69 226.62 C-67.09 230.11 -56.7 230.11 -48.69 227.75 C-41.73 224.51 -35.69 218.34 -32.06 211.69 C-33.07 211.23 -34.07 210.76 -35.11 210.29 C-43.61 206.27 -50.94 201.89 -58.2 195.89 C-61.83 193.1 -65.09 190.99 -69.66 190.29 C-75.29 191.23 -79.43 196.59 -82.79 200.91 Z " fill="#ffffff" transform="translate(334.0625,59.3125)"/>
<path d="M0 0 C12.53 3.29 23.7 1.52 36.28 -0.68 C70.51 -6.63 70.51 -6.63 82.12 0.75 C85.51 3.61 86.85 5.87 87.38 10.19 C88.39 24.06 86.08 44.93 77.08 56.11 C72.35 61.19 67.2 62.54 60.43 62.94 C58.01 63.02 55.6 63.05 53.19 63.06 C52.38 63.08 51.56 63.1 50.73 63.12 C44.26 63.17 39.05 62.1 33.53 58.48 C27.88 52.78 24.29 45.84 20.56 38.81 C20.12 37.99 19.68 37.16 19.23 36.32 C16.32 30.83 13.43 25.33 10.56 19.81 C9.24 19.81 7.92 19.81 6.56 19.81 C6.33 20.33 6.1 20.85 5.86 21.38 C3.52 26.62 1.17 31.85 -1.2 37.07 C-1.99 38.82 -2.78 40.58 -3.57 42.33 C-4.6 44.62 -5.64 46.91 -6.69 49.19 C-6.99 49.87 -7.3 50.55 -7.61 51.25 C-11.34 59.3 -16.23 64.27 -24.44 67.81 C-27.41 68.76 -30.35 69.34 -33.44 69.81 C-35.39 70.12 -35.39 70.12 -37.38 70.44 C-51.82 71.78 -65.99 72.48 -77.81 62.81 C-87.06 53.71 -90.42 40.83 -94.44 28.81 C-99.19 30.27 -102.25 33.12 -105.75 36.5 C-106.9 37.59 -108.06 38.68 -109.21 39.77 C-109.77 40.3 -110.32 40.82 -110.89 41.37 C-112.82 43.17 -114.81 44.91 -116.81 46.62 C-119.91 49.3 -122.79 52.14 -125.66 55.07 C-127.5 56.88 -129.42 58.57 -131.38 60.25 C-134.18 62.67 -136.84 65.17 -139.44 67.81 C-143.27 71.69 -147.27 75.3 -151.44 78.81 C-152.29 79.54 -153.14 80.27 -154.02 81.03 C-154.9 81.76 -155.78 82.49 -156.69 83.25 C-157.5 83.93 -158.31 84.61 -159.14 85.31 C-161.44 86.81 -161.44 86.81 -165.44 86.81 C-167.78 82.12 -166.91 75.9 -166.44 70.81 C-165.34 67.55 -163.73 65.35 -161.44 62.81 C-160.47 61.74 -160.47 61.74 -159.49 60.65 C-154.83 55.78 -149.76 51.52 -144.51 47.32 C-140.98 44.44 -137.55 41.44 -134.12 38.44 C-127.63 32.77 -120.96 27.38 -114.12 22.12 C-112.46 20.83 -110.81 19.51 -109.16 18.19 C-77.6 -7.03 -38.3 -10.33 0 0 Z M-28.44 6.81 C-28.77 8.13 -29.1 9.45 -29.44 10.81 C-24.61 15.27 -24.61 15.27 -18.56 16.81 C-16.29 15.89 -16.29 15.89 -14.44 13.81 C-14.27 11.23 -14.27 11.23 -14.44 8.81 C-17.65 6.91 -19.98 6.59 -23.69 6.69 C-25.03 6.71 -25.03 6.71 -26.39 6.74 C-27.07 6.77 -27.74 6.79 -28.44 6.81 Z M58.56 8.81 C57.57 10.3 57.57 10.3 56.56 11.81 C59.7 16.23 59.7 16.23 64.25 18.81 C65.01 18.81 65.78 18.81 66.56 18.81 C67.22 18.15 67.88 17.49 68.56 16.81 C68.4 13.71 67.99 12.25 65.81 10 C63.12 8.58 61.56 8.34 58.56 8.81 Z " fill="#ffffff" transform="translate(318.4375,109.1875)"/>
<path d="M0 0 C0.99 0.33 1.98 0.66 3 1 C3.48 3.65 3.96 6.29 4.44 8.94 C4.57 9.67 4.71 10.41 4.85 11.17 C4.98 11.9 5.11 12.64 5.25 13.4 C5.37 14.07 5.49 14.73 5.61 15.42 C6.7 22.64 7.17 29.73 7.2 37.03 C7.21 37.97 7.22 38.9 7.22 39.87 C7.72 124.81 7.72 124.81 -13 154 C-15.13 155.22 -15.13 155.22 -17 156 C-16.27 149.35 -14.51 143.03 -12.81 136.56 C-10.08 125.87 -7.72 115.16 -5.69 104.31 C-5.45 103.04 -5.2 101.77 -4.95 100.45 C-3.22 91.01 -2.03 81.54 -1 72 C-1.19 72.53 -1.37 73.07 -1.57 73.61 C-3.54 79.23 -5.52 84.84 -7.51 90.46 C-8.24 92.54 -8.98 94.63 -9.71 96.72 C-16.74 116.72 -16.74 116.72 -20.21 125.21 C-20.63 126.25 -21.06 127.3 -21.49 128.37 C-23.23 131.4 -25.16 133 -28 135 C-27.68 126.18 -25.03 118.47 -22.14 110.23 C-11.18 78.93 -6.54 48.76 -4 15.79 C-3.94 15.03 -3.88 14.27 -3.82 13.49 C-3.71 12.06 -3.6 10.62 -3.49 9.19 C-3.26 6.26 -2.93 3.8 -2 1 C-1.34 0.67 -0.68 0.34 0 0 Z " fill="#ffffff" transform="translate(161,291)"/>
<path d="M0 0 C1.91 0.17 1.91 0.17 4 1 C8.86 7.73 11.23 16.68 13.94 24.44 C14.37 25.66 14.8 26.89 15.25 28.15 C17.79 35.4 20.28 42.68 22.62 50 C22.87 50.76 23.12 51.53 23.37 52.31 C24.45 55.74 25 58.37 25 62 C21.76 60.64 20.28 59.39 18.5 56.38 C18.08 55.67 17.67 54.97 17.24 54.24 C15.38 50.88 13.67 47.46 12 44 C15.32 60.61 21.46 77.11 28.15 92.67 C29.3 95.82 29.13 98.67 29 102 C25.4 100.8 24.95 99.52 23.3 96.24 C22.97 95.56 22.65 94.89 22.31 94.19 C21.97 93.48 21.62 92.77 21.27 92.04 C8.24 64.83 -3.14 31.67 -1 1 C-0.67 0.67 -0.34 0.34 0 0 Z " fill="#ffffff" transform="translate(372,369)"/>
<path d="M0 0 C0.66 0 1.32 0 2 0 C2.38 14.38 1.37 28.48 -0.03 42.79 C-0.38 46.39 -0.71 49.99 -1.05 53.59 C-1.27 55.92 -1.49 58.25 -1.71 60.59 C-1.81 61.64 -1.91 62.69 -2.01 63.78 C-2.74 71.23 -3.8 78.61 -5 86 C-5.99 85.67 -6.98 85.34 -8 85 C-8.66 79.06 -9.32 73.12 -10 67 C-10.55 68.36 -11.11 69.72 -11.68 71.12 C-12.41 72.89 -13.14 74.67 -13.88 76.44 C-14.24 77.34 -14.6 78.23 -14.98 79.16 C-15.33 80.01 -15.69 80.87 -16.05 81.75 C-16.38 82.54 -16.7 83.33 -17.04 84.14 C-18 86 -18 86 -20 87 C-20.28 80.97 -19.22 75.66 -17.84 69.8 C-17.5 68.33 -17.5 68.33 -17.16 66.83 C-16.42 63.65 -15.68 60.48 -14.94 57.31 C-14.43 55.14 -13.93 52.96 -13.42 50.79 C-10.66 38.92 -7.86 27.07 -4.94 15.25 C-4.53 13.58 -4.53 13.58 -4.11 11.87 C-3.85 10.87 -3.6 9.86 -3.34 8.83 C-3.13 7.98 -2.91 7.13 -2.7 6.26 C-2.01 4.02 -1.11 2.06 0 0 Z " fill="#ffffff" transform="translate(279,372)"/>
<path d="M0 0 C3.62 1.89 5.69 4.07 7 8 C7.19 11.56 7.19 11.56 7 15 C4.52 17.48 2.98 17.56 -0.44 18.25 C-8.63 20.18 -15.32 23.97 -22 29 C-24.06 29.88 -24.06 29.88 -26 30 C-27.88 29.06 -27.88 29.06 -29 27 C-27.79 17.12 -21.68 8.17 -14 2 C-9.55 -0.71 -5.07 -0.8 0 0 Z " fill="#ffffff" transform="translate(344,180)"/>
</svg>
