<svg xmlns="http://www.w3.org/2000/svg" fill="none" viewBox="0 0 500 500"><path fill="#B04304" d="M295.334 103.333v-40L340.667 90v40zm-45.333-40-45.334-26.666v426.666L250.001 490z"/><path fill="#FF5D01" d="m250.001 129.944 45.333-26.667 45.333 26.667-45.333 26.667zm-45.334-93.277L250.001 10l45.333 26.667-45.333 26.666zm90.667 26.61 45.333-26.666L386 63.277l-45.333 26.667zM114 223.277l45.333-26.667 45.334 26.667-45.334 26.667zm136 26.667-45.333-26.667v53.333z"/><path fill="#53C68C" d="m250 63.333 45.333-26.666v120L340.667 130V90L386 63.333V170l-90.667 53.333v240L250 490V316.667L159.333 370V250l45.334-26.667v53.334L250 250z"/><path fill="#B04304" d="M159.333 250 114 223.334v120L159.333 370z"/></svg>