<svg xmlns="http://www.w3.org/2000/svg" width="216" height="46" fill="none" viewBox="0 0 216 46"><g clip-path="url(#a)"><path fill="#31A1A8" d="m15.66 33-1.584-6.048H7.2L5.652 33H.18L6.984 7.872h7.632L21.42 33zM10.8 13.092h-.288l-2.448 9.504h5.184zm21.37 20.34c-2.064 0-3.864-.312-5.4-.936-1.512-.624-2.652-1.476-3.42-2.556l2.988-2.772a8.034 8.034 0 0 0 2.52 1.872c.984.432 2.1.648 3.348.648 1.056 0 1.884-.156 2.484-.468.6-.336.9-.84.9-1.512 0-.528-.204-.888-.612-1.08-.408-.216-.972-.384-1.692-.504l-2.988-.468c-.84-.12-1.62-.3-2.34-.54a6.414 6.414 0 0 1-1.872-1.044 4.786 4.786 0 0 1-1.26-1.584c-.312-.624-.468-1.38-.468-2.268 0-1.944.744-3.468 2.232-4.572 1.488-1.104 3.576-1.656 6.264-1.656 1.824 0 3.372.252 4.644.756 1.296.48 2.328 1.176 3.096 2.088L37.93 19.86c-.552-.6-1.26-1.104-2.124-1.512-.864-.408-1.908-.612-3.132-.612-2.064 0-3.096.624-3.096 1.872 0 .552.204.936.612 1.152.408.192.972.348 1.692.468l2.952.468c.84.12 1.62.312 2.34.576.72.24 1.344.576 1.872 1.008a4.6 4.6 0 0 1 1.296 1.584c.312.624.468 1.38.468 2.268 0 1.944-.756 3.48-2.268 4.608-1.488 1.128-3.612 1.692-6.372 1.692M55.412 33c-1.92 0-3.348-.504-4.284-1.512-.936-1.008-1.404-2.292-1.404-3.852v-9.072h-5.04v-4.14h3.276c.792 0 1.356-.156 1.692-.468.336-.312.504-.888.504-1.728V7.872h4.896v6.552h7.236v4.14h-7.236V28.86h7.236V33zm12.01-4.14h4.284V18.564h-4.284v-4.14h9.612v5.256h.252c.168-.672.396-1.32.684-1.944a6.576 6.576 0 0 1 1.152-1.692c.48-.504 1.056-.9 1.728-1.188.672-.288 1.464-.432 2.376-.432h1.764v4.896h-3.96c-1.32 0-2.316.396-2.988 1.188-.672.768-1.008 1.716-1.008 2.844v5.508h6.12V33H67.422zm29.722 4.572c-1.44 0-2.736-.216-3.888-.648a8.331 8.331 0 0 1-2.952-1.944c-.792-.84-1.404-1.86-1.836-3.06-.432-1.2-.648-2.556-.648-4.068 0-1.512.216-2.868.648-4.068.432-1.2 1.044-2.22 1.836-3.06a7.94 7.94 0 0 1 2.952-1.908c1.152-.456 2.448-.684 3.888-.684s2.736.228 3.888.684c1.152.432 2.124 1.068 2.916 1.908.816.84 1.44 1.86 1.872 3.06.432 1.2.648 2.556.648 4.068 0 1.512-.216 2.868-.648 4.068-.432 1.2-1.056 2.22-1.872 3.06-.792.84-1.764 1.488-2.916 1.944-1.152.432-2.448.648-3.888.648m0-3.96c1.2 0 2.136-.372 2.808-1.116.672-.744 1.008-1.8 1.008-3.168v-2.952c0-1.368-.336-2.424-1.008-3.168-.672-.744-1.608-1.116-2.808-1.116-1.2 0-2.136.372-2.808 1.116-.672.744-1.008 1.8-1.008 3.168v2.952c0 1.368.336 2.424 1.008 3.168.672.744 1.608 1.116 2.808 1.116M110.666 33V7.872h9.72c1.224 0 2.316.192 3.276.576.96.36 1.764.888 2.412 1.584.672.696 1.176 1.536 1.512 2.52.336.984.504 2.088.504 3.312 0 1.224-.168 2.328-.504 3.312-.336.984-.84 1.824-1.512 2.52-.648.696-1.452 1.236-2.412 1.62-.96.36-2.052.54-3.276.54h-4.284V33zm5.436-13.5h2.916c1.272 0 2.148-.24 2.628-.72.504-.48.756-1.272.756-2.376v-1.08c0-1.104-.252-1.896-.756-2.376-.48-.48-1.356-.72-2.628-.72h-2.916zM147.048 33c-1.104 0-1.992-.276-2.664-.828-.672-.576-1.068-1.392-1.188-2.448h-.18c-.336 1.224-1.008 2.148-2.016 2.772-.984.624-2.196.936-3.636.936-1.8 0-3.252-.48-4.356-1.44-1.08-.984-1.62-2.352-1.62-4.104 0-1.944.708-3.384 2.124-4.32 1.416-.936 3.492-1.404 6.228-1.404h2.988v-.936c0-1.104-.264-1.932-.792-2.484-.504-.576-1.368-.864-2.592-.864-1.128 0-2.04.216-2.736.648a6.341 6.341 0 0 0-1.8 1.692l-2.916-2.592c.624-1.056 1.596-1.92 2.916-2.592 1.344-.696 3.06-1.044 5.148-1.044 2.544 0 4.524.588 5.94 1.764 1.44 1.152 2.16 2.904 2.16 5.256v8.136h2.052V33zm-7.668-3.06c.936 0 1.728-.228 2.376-.684.648-.456.972-1.116.972-1.98v-2.232h-2.844c-2.184 0-3.276.732-3.276 2.196v.72c0 .648.252 1.14.756 1.476.504.336 1.176.504 2.016.504m13.846-15.516h5.328v3.384h.252c.456-1.104 1.116-2.016 1.98-2.736.864-.72 2.04-1.08 3.528-1.08 1.032 0 1.968.192 2.808.576a5.56 5.56 0 0 1 2.196 1.764c.624.792 1.104 1.8 1.44 3.024.36 1.224.54 2.676.54 4.356 0 1.68-.18 3.132-.54 4.356-.336 1.224-.816 2.232-1.44 3.024a5.56 5.56 0 0 1-2.196 1.764c-.84.384-1.776.576-2.808.576-1.488 0-2.664-.348-3.528-1.044-.864-.72-1.524-1.644-1.98-2.772h-.252V40.2h-5.328zm8.784 14.868c1.2 0 2.124-.36 2.772-1.08.648-.744.972-1.764.972-3.06v-2.88c0-1.296-.324-2.304-.972-3.024-.648-.744-1.572-1.116-2.772-1.116-.936 0-1.752.228-2.448.684-.672.456-1.008 1.176-1.008 2.16v5.472c0 .984.336 1.704 1.008 2.16.696.456 1.512.684 2.448.684m21.982 4.14c-3.12 0-5.484-.864-7.092-2.592-1.608-1.728-2.412-4.08-2.412-7.056 0-1.512.204-2.868.612-4.068.432-1.224 1.032-2.256 1.8-3.096a7.526 7.526 0 0 1 2.844-1.944c1.128-.456 2.388-.684 3.78-.684s2.64.228 3.744.684c1.104.432 2.04 1.056 2.808 1.872.768.816 1.356 1.812 1.764 2.988.432 1.152.648 2.448.648 3.888v1.584H179.78v.324c0 1.2.372 2.172 1.116 2.916.744.72 1.836 1.08 3.276 1.08 1.104 0 2.052-.204 2.844-.612a6.976 6.976 0 0 0 2.052-1.692l2.88 3.132c-.72.888-1.728 1.656-3.024 2.304-1.296.648-2.94.972-4.932.972m-.432-15.624c-1.152 0-2.076.36-2.772 1.08-.672.696-1.008 1.644-1.008 2.844v.288h7.488v-.288c0-1.224-.336-2.184-1.008-2.88-.648-.696-1.548-1.044-2.7-1.044m13.377 11.052h4.284V18.564h-4.284v-4.14h9.612v5.256h.252c.168-.672.396-1.32.684-1.944a6.576 6.576 0 0 1 1.152-1.692c.48-.504 1.056-.9 1.728-1.188.672-.288 1.464-.432 2.376-.432h1.764v4.896h-3.96c-1.32 0-2.316.396-2.988 1.188-.672.768-1.008 1.716-1.008 2.844v5.508h6.12V33h-15.732z"/></g><defs><clipPath id="a"><path fill="#fff" d="M0 0h216v46H0z"/></clipPath></defs></svg>